<?xml version="1.0" encoding="iso-8859-1"?>
<!-- Generator: Adobe Illustrator 19.0.1, SVG Export Plug-In . SVG Version: 6.00 Build 0)  -->
<svg version="1.1" id="icons" xmlns="http://www.w3.org/2000/svg" xmlns:xlink="http://www.w3.org/1999/xlink" x="0px" y="0px"
	 viewBox="0 0 71 78" style="enable-background:new 0 0 71 78;" xml:space="preserve">
<g>
	<g>
		<g>
			<path style="fill:#dc1160;" d="M36,45c-2.757,0-5-2.243-5-5s2.243-5,5-5c2.757,0,5,2.243,5,5S38.757,45,36,45z M36,37
				c-1.654,0-3,1.346-3,3s1.346,3,3,3c1.654,0,3-1.346,3-3S37.654,37,36,37z"/>
		</g>
		<g>
			<g>
				<path style="fill:#dc1160;" d="M14,38c-2.206,0-4-1.794-4-4s1.794-4,4-4s4,1.794,4,4S16.206,38,14,38z M14,32
					c-1.103,0-2,0.897-2,2s0.897,2,2,2s2-0.897,2-2S15.103,32,14,32z"/>
			</g>
		</g>
		<g>
			<g>
				<path style="fill:#dc1160;" d="M42,66c-2.206,0-4-1.794-4-4s1.794-4,4-4c2.206,0,4,1.794,4,4S44.206,66,42,66z M42,60
					c-1.103,0-2,0.897-2,2s0.897,2,2,2s2-0.897,2-2S43.103,60,42,60z"/>
			</g>
		</g>
		<g>
			<g>
				<path style="fill:#dc1160;" d="M52,28c-2.206,0-4-1.794-4-4s1.794-4,4-4c2.206,0,4,1.794,4,4S54.206,28,52,28z M52,22
					c-1.103,0-2,0.897-2,2s0.897,2,2,2s2-0.897,2-2S53.103,22,52,22z"/>
			</g>
		</g>
		<g>
			<path style="fill:#dc1160;" d="M36,72c-6.495,0-10-16.487-10-32S29.505,8,36,8s10,16.487,10,32
				c0,7.118-0.677,13.834-1.959,19.421l-1.949-0.447C43.34,53.531,44,46.97,44,40c0-17.68-4.216-30-8-30c-3.784,0-8,12.32-8,30
				s4.216,30,8,30c1.455,0,3.066-1.981,4.419-5.437l1.862,0.73C40.109,70.837,37.667,72,36,72z"/>
		</g>
		<g>
			<path style="fill:#dc1160;" d="M14.027,58.362c-2.75,0-4.791-0.718-5.74-2.362c-1.465-2.537,0.204-6.426,4.826-11.244
				C17.397,40.29,23.75,35.525,31,31.339c6.13-3.54,12.257-6.303,17.719-7.99l0.591,1.91c-5.322,1.644-11.307,4.346-17.31,7.813
				c-7.092,4.094-13.287,8.735-17.444,13.069c-3.773,3.934-5.469,7.245-4.537,8.859c1.89,3.276,14.669,0.768,29.98-8.072
				c7.092-4.095,13.287-8.735,17.444-13.069c3.773-3.933,5.469-7.244,4.537-8.858c-0.736-1.275-3.298-1.671-7.031-1.092
				l-0.308-1.977c5.976-0.931,8.23,0.612,9.071,2.068c1.465,2.537-0.203,6.426-4.825,11.243C54.603,39.709,48.251,44.474,41,48.66
				C31.492,54.149,20.684,58.362,14.027,58.362z"/>
		</g>
		<g>
			<path style="fill:#dc1160;" d="M57.972,58.363c-6.657,0-17.465-4.213-26.972-9.702c-6.212-3.586-11.723-7.561-15.935-11.495
				l1.365-1.461c4.044,3.776,9.573,7.763,15.569,11.224C47.31,55.769,60.089,58.277,61.98,55c0.932-1.614-0.764-4.926-4.537-8.858
				C53.287,41.809,47.092,37.168,40,33.073C24.69,24.234,11.913,21.726,10.018,25c-0.72,1.249,0.171,3.61,2.446,6.479l-1.567,1.242
				C7.24,28.11,7.459,25.434,8.286,24c3.247-5.624,19.279-0.415,32.714,7.341c7.25,4.187,13.603,8.951,17.887,13.416
				c4.622,4.818,6.291,8.706,4.826,11.243C62.763,57.645,60.722,58.363,57.972,58.363z"/>
		</g>
	</g>
	<g>
		<rect x="7" y="39" style="fill:#dc1160;" width="2" height="2"/>
	</g>
	<g>
		<rect x="63" y="39" style="fill:#dc1160;" width="2" height="2"/>
	</g>
	<g>
		<rect x="20" y="14" style="fill:#dc1160;" width="2" height="2"/>
	</g>
	<g>
		<rect x="50" y="14" style="fill:#dc1160;" width="2" height="2"/>
	</g>
	<g>
		<rect x="20" y="64" style="fill:#dc1160;" width="2" height="2"/>
	</g>
	<g>
		<rect x="50" y="64" style="fill:#dc1160;" width="2" height="2"/>
	</g>
</g>
</svg>
