<?xml version="1.0" encoding="iso-8859-1"?>
<!-- Generator: Adobe Illustrator 19.0.1, SVG Export Plug-In . SVG Version: 6.00 Build 0)  -->
<svg version="1.1" id="icons" xmlns="http://www.w3.org/2000/svg" xmlns:xlink="http://www.w3.org/1999/xlink" x="0px" y="0px"
	 viewBox="0 0 65 59" style="enable-background:new 0 0 65 59;" xml:space="preserve">
<g>
	<path style="fill:none;stroke:#4a6380;stroke-width:2;stroke-linejoin:round;stroke-miterlimit:10;" d="M31,34.504L16.164,49.34
		c-1.172,1.172-3.071,1.172-4.242,0l0,0"/>
	<path style="fill:none;stroke:#4a6380;stroke-width:2;stroke-linejoin:round;stroke-miterlimit:10;" d="M33,24.019l2.969-2.969
		c-1.596-3.345-1.726-6.76,1.045-9.529c0.237-0.238,1.134-1.135,1.414-1.414c2.474-2.474,6.473-2.503,9.529-1.045l-5.287,5.287
		l4.243,4.242l5.287-5.286c1.458,3.057,1.429,7.056-1.045,9.529c-0.279,0.28-1.176,1.176-1.414,1.414
		c-2.769,2.77-6.185,2.64-9.529,1.045L37.504,28"/>
	<path style="fill:none;stroke:#4a6380;stroke-width:2;stroke-linejoin:round;stroke-miterlimit:10;" d="M11.922,49.34L11.922,49.34
		c-1.172-1.172-1.172-3.071,0-4.242L27,30.02"/>
	
		<line style="fill:none;stroke:#4a6380;stroke-width:2;stroke-linejoin:round;stroke-miterlimit:10;" x1="14.043" y1="47.219" x2="16.164" y2="45.098"/>
	<polyline style="fill:none;stroke:#4a6380;stroke-width:2;stroke-linejoin:round;stroke-miterlimit:10;" points="37.241,37.071 
		20.977,20.808 17.442,20.101 11.783,11.619 14.614,8.787 23.099,14.444 23.806,17.979 40.069,34.243 	"/>
	<path style="fill:none;stroke:#4a6380;stroke-width:2;stroke-linejoin:round;stroke-miterlimit:10;" d="M35.131,39.204l7.068-7.073
		c0.013-0.013,2.122,0.707,2.122,0.707s0.702,3.531,0.708,3.537l8.476,8.474c1.172,1.172,1.172,3.071,0,4.243l-1.414,1.414
		c-1.171,1.171-3.07,1.171-4.242,0l-8.478-8.477c-0.006-0.006-3.534-0.705-3.534-0.705S35.117,39.217,35.131,39.204z"/>
	
		<line style="fill:none;stroke:#4a6380;stroke-width:2;stroke-linejoin:round;stroke-miterlimit:10;" x1="41.483" y1="38.485" x2="49.969" y2="46.971"/>
</g>
</svg>
