<?xml version="1.0" encoding="iso-8859-1"?>
<!-- Generator: Adobe Illustrator 19.0.1, SVG Export Plug-In . SVG Version: 6.00 Build 0)  -->
<svg version="1.1" id="icons" xmlns="http://www.w3.org/2000/svg" xmlns:xlink="http://www.w3.org/1999/xlink" x="0px" y="0px"
	 viewBox="0 0 58 60" style="enable-background:new 0 0 58 60;" xml:space="preserve">
<g>
	<path style="fill:none;stroke:#dc1160;stroke-width:2;stroke-miterlimit:10;" d="M19.57,36.013
		c-7.398,1.473-12.488,4.505-12.488,8.018c0,4.939,10.045,8.945,22.459,8.97C41.955,52.976,52,48.97,52,44.03
		c0-3.512-5.091-6.544-12.488-8.018 M28.979,16c0.003,0,0.005,0,0.008,0c0.002,0,0.005,0,0.008,0
		c2.761-0.004,5.001,2.231,5.005,4.993c0.004,2.762-2.23,5.003-4.99,5.007c-0.008,0-0.015-0.001-0.022-0.001
		c-0.008,0-0.015,0.001-0.023,0.001c-2.76-0.004-4.995-2.245-4.991-5.007C23.979,18.231,26.219,15.996,28.979,16z"/>
	<path style="fill:none;stroke:#dc1160;stroke-width:2;stroke-miterlimit:10;" d="M29,8c7.18,0,13,5.82,13,13
		c0.004,3.106-0.457,5.258-2.222,8.082C38.014,31.904,29,45,29,45s-9.014-13.096-10.778-15.918C16.457,26.258,15.996,24.106,16,21
		C16,13.82,21.82,8,29,8z"/>
</g>
</svg>
