<?xml version="1.0" encoding="iso-8859-1"?>
<!-- Generator: Adobe Illustrator 19.0.1, SVG Export Plug-In . SVG Version: 6.00 Build 0)  -->
<svg version="1.1" id="icons" xmlns="http://www.w3.org/2000/svg" xmlns:xlink="http://www.w3.org/1999/xlink" x="0px" y="0px"
	 viewBox="0 0 60 45" style="enable-background:new 0 0 60 45;" xml:space="preserve">
<g>
	<g>
		<path style="fill:none;stroke:#da0253;stroke-width:2;stroke-miterlimit:10;" d="M38,14h7.943c0.661,0,1.279,0.327,1.652,0.873
			L51,21h1c1.125,0,2,0.745,2,2.213V30c0,1.104-0.896,2-2,2h-2"/>
	</g>
	<polyline style="fill:none;stroke:#da0253;stroke-width:2;stroke-miterlimit:10;" points="21,7 38,7 38,32 23,32 	"/>
	<line style="fill:none;stroke:#da0253;stroke-width:2;stroke-miterlimit:10;" x1="15" y1="32" x2="10" y2="32"/>
	<ellipse style="fill:none;stroke:#da0253;stroke-width:2;stroke-miterlimit:10;" cx="45.991" cy="33.012" rx="4.009" ry="3.991"/>
	<ellipse style="fill:none;stroke:#da0253;stroke-width:2;stroke-miterlimit:10;" cx="19.009" cy="33.012" rx="4.009" ry="3.991"/>
	<line style="fill:none;stroke:#da0253;stroke-width:2;stroke-miterlimit:10;" x1="38" y1="32" x2="42" y2="32"/>
	<polyline style="fill:none;stroke:#da0253;stroke-width:2;stroke-miterlimit:10;" points="40,22 47,22 47,21 45,18 	"/>
	<line style="fill:none;stroke:#da0253;stroke-width:2;stroke-miterlimit:10;" x1="7" y1="19" x2="24" y2="19"/>
	<line style="fill:none;stroke:#da0253;stroke-width:2;stroke-miterlimit:10;" x1="15" y1="13" x2="30" y2="13"/>
</g>
</svg>
