<?xml version="1.0" encoding="iso-8859-1"?>
<!-- Generator: Adobe Illustrator 19.0.1, SVG Export Plug-In . SVG Version: 6.00 Build 0)  -->
<svg version="1.1" id="icons" xmlns="http://www.w3.org/2000/svg" xmlns:xlink="http://www.w3.org/1999/xlink" x="0px" y="0px"
	 viewBox="0 0 57 56" style="enable-background:new 0 0 57 56;" xml:space="preserve">
<g>
	<path style="fill:none;stroke:#da0253;stroke-width:2;stroke-miterlimit:10;" d="M22.222,40L19,36.778c0-0.553,0-0.862,0-1.414
		l1.417-1.221c0.067-0.425,0.215-0.73,0.283-1.156c-0.133-0.284-0.167-0.54-0.241-0.806c-0.364-0.271-0.59-0.458-0.955-0.729
		L17.91,31.48c-0.399-0.395-0.612-0.611-1.012-1.006l0.022-3.104c0.412-0.391,0.636-0.601,1.048-0.993l1.503,0.07
		c0.377-0.271,0.631-0.454,1.008-0.726c0.07-0.246,0.15-0.483,0.275-0.748c-0.067-0.427-0.312-0.733-0.379-1.16L19,22.636
		c0-0.552,0-0.861,0-1.414L22.222,18c0.552,0,0.862,0,1.414,0l1.18,1.377c0.424,0.068,0.729,0.216,1.153,0.284
		c0.274-0.126,0.52-0.155,0.776-0.225c0.275-0.367,0.463-0.593,0.738-0.96l-0.033-1.573c0.396-0.4,0.611-0.613,1.007-1.015
		l3.102,0.024c0.391,0.41,0.602,0.634,0.992,1.043l-0.063,1.542c0.266,0.372,0.448,0.627,0.715,0.999
		c0.257,0.075,0.504,0.162,0.779,0.294c0.429-0.066,0.736-0.311,1.165-0.378L36.364,18c0.552,0,0.862,0,1.414,0L41,21.222
		c0,0.553,0,0.862,0,1.414l-1.402,1.206c-0.081,0.413-0.239,0.72-0.319,1.132c0.128,0.275,0.156,0.52,0.222,0.772
		c0.372,0.283,0.597,0.473,0.969,0.756l1.551-0.037c0.402,0.396,0.615,0.611,1.018,1.008l-0.027,3.086
		c-0.413,0.391-0.637,0.601-1.049,0.991l-1.51-0.073c-0.376,0.269-0.631,0.452-1.008,0.722c-0.071,0.245-0.152,0.481-0.277,0.744
		c0.067,0.429,0.312,0.734,0.378,1.163L41,35.364c0,0.552,0,0.861,0,1.414L37.778,40c-0.552,0-0.862,0-1.414,0l-1.263-1.459
		c-0.423-0.068-0.729-0.216-1.153-0.284c-0.274,0.126-0.521,0.155-0.776,0.225c-0.275,0.367-0.463,0.593-0.739,0.96l0.033,1.573
		c-0.396,0.4-0.611,0.613-1.007,1.015l-3.088-0.024c-0.391-0.416-0.601-0.64-0.992-1.056l0.079-1.469
		c-0.278-0.383-0.463-0.638-0.742-1.021c-0.244-0.068-0.479-0.148-0.747-0.276c-0.41,0.077-0.712,0.33-1.122,0.407L23.636,40
		C23.084,40,22.774,40,22.222,40z"/>
	<circle style="fill:none;stroke:#da0253;stroke-width:2;stroke-miterlimit:10;" cx="30" cy="29" r="4"/>
	<polyline style="fill:none;stroke:#da0253;stroke-width:2;stroke-miterlimit:10;" points="18,41 12,41 12,47 	"/>
	<path style="fill:none;stroke:#da0253;stroke-width:2;stroke-miterlimit:10;" d="M10.872,37.518
		c-3.517-7.714-2.02-17.08,4.328-23.428c8.169-8.169,21.496-8.124,29.665,0.045l2.703,2.703"/>
	<path style="fill:none;stroke:#da0253;stroke-width:2;stroke-miterlimit:10;" d="M49.128,20.482
		c3.517,7.714,2.019,17.081-4.329,23.428c-8.169,8.17-21.496,8.124-29.665-0.045l-2.703-2.703"/>
	<polyline style="fill:none;stroke:#da0253;stroke-width:2;stroke-miterlimit:10;" points="42,17 48,17 48,11 	"/>
</g>
</svg>
