<?xml version="1.0" encoding="iso-8859-1"?>
<!-- Generator: Adobe Illustrator 19.0.1, SVG Export Plug-In . SVG Version: 6.00 Build 0)  -->
<svg version="1.1" id="icons" xmlns="http://www.w3.org/2000/svg" xmlns:xlink="http://www.w3.org/1999/xlink" x="0px" y="0px"
	 viewBox="0 0 53 59" style="enable-background:new 0 0 53 59;" xml:space="preserve">
<g>
	<path style="fill:none;stroke:#da0253;stroke-width:2;stroke-linejoin:round;stroke-miterlimit:10;" d="M28.598,34.967
		l13.435,13.435c1.195,1.195,3.356,0.887,4.95-0.707l0.07-0.07c1.593-1.593,1.832-3.685,0.637-4.879l-5.657-5.657"/>
	<path style="fill:none;stroke:#da0253;stroke-width:2;stroke-linejoin:round;stroke-miterlimit:10;" d="M38.499,26.482l0.707-0.707
		c0.391-0.391,0.391-1.023,0-1.414l-2.121-2.121c-0.391-0.391-1.024-0.391-1.415,0l-1.414,1.414"/>
	<path style="fill:none;stroke:#da0253;stroke-width:2;stroke-linejoin:round;stroke-miterlimit:10;" d="M32.135,25.775l2.121-2.121
		c0.391-0.391,0.391-1.023,0-1.414l-2.121-2.121c-0.391-0.391-1.024-0.391-1.415,0l-2.121,2.121"/>
	<path style="fill:none;stroke:#da0253;stroke-width:2;stroke-linejoin:round;stroke-miterlimit:10;" d="M33.828,33.167l1.842,1.813
		c0.391,0.385,1.02,0.383,1.408-0.006l4.956-4.955c0.391-0.391,0.391-1.024,0-1.415l-2.122-2.121c-0.391-0.391-1.023-0.391-1.414,0
		l-2.829,2.829"/>
	<path style="fill:none;stroke:#da0253;stroke-width:2;stroke-linejoin:round;stroke-miterlimit:10;" d="M27.892,46.989l1.414-1.415
		c1.217-1.217,3.944,0.299,5.657-1.414c1.713-1.713,2.122-2.121,2.122-2.121"/>
	<path style="fill:none;stroke:#da0253;stroke-width:2;stroke-linejoin:round;stroke-miterlimit:10;" d="M26.478,38.504
		c3.048-3.049,3.185-8.13,0.707-10.607c0.462,0.463,1.624,1.624,2.829,2.829c2.454,2.454,5.767,0.859,6.364-0.707
		c-0.77-0.771-7.778-7.778-7.778-7.778c-0.941-0.941-1.84-1.09-3.33-0.864c-1.49,0.226-3.88,0.468-4.714,1.082
		c-0.835,0.613-1.572,3.657-1.572,6.001c0,2.842-0.393,5.206-0.989,5.802l-1.415,1.414"/>
	<path style="fill:none;stroke:#da0253;stroke-width:2;stroke-linejoin:round;stroke-miterlimit:10;" d="M42.034,30.019l2.828,2.828
		c0.391,0.391,0.391,1.023,0,1.414l-4.95,4.95c-0.391,0.391-1.023,0.391-1.414,0l-2.122-2.122c-0.39-0.39-0.39-1.024,0-1.414
		l0.708-0.707"/>
	
		<rect x="9.408" y="40.162" transform="matrix(0.7073 0.7069 -0.7069 0.7073 36.8994 -0.7918)" style="fill:none;stroke:#da0253;stroke-width:2;stroke-linejoin:round;stroke-miterlimit:10;" width="19.995" height="7.995"/>
	
		<line style="fill:none;stroke:#da0253;stroke-width:2;stroke-linejoin:round;stroke-miterlimit:10;" x1="42.741" y1="43.453" x2="44.862" y2="45.574"/>
	
		<line style="fill:none;stroke:#da0253;stroke-width:2;stroke-linejoin:round;stroke-miterlimit:10;" x1="14.457" y1="39.211" x2="15.871" y2="40.625"/>
	<path style="fill:none;stroke:#da0253;stroke-width:2;stroke-linejoin:round;stroke-miterlimit:10;" d="M26.478,21.533
		l-3.443-3.443c0.792-2.57,0.174-5.482-1.86-7.517c-2.308-2.309-5.743-2.79-8.531-1.46l5.349,5.349l-3.536,3.535l-5.349-5.349
		c-1.33,2.787-0.849,6.223,1.459,8.531c1.733,1.733,4.103,2.432,6.356,2.113l2.482,2.482"/>
</g>
</svg>
