<?xml version="1.0" encoding="iso-8859-1"?>
<!-- Generator: Adobe Illustrator 19.0.1, SVG Export Plug-In . SVG Version: 6.00 Build 0)  -->
<svg version="1.1" id="Layer_1" xmlns="http://www.w3.org/2000/svg" xmlns:xlink="http://www.w3.org/1999/xlink" x="0px" y="0px"
	 viewBox="0 0 297 226" style="enable-background:new 0 0 297 226;" xml:space="preserve">
<g>
	<path style="fill:#dc1160;" d="M272.617,12.695H25.383c-10.283,0-18.654,8.369-18.654,18.654v95.475
		c0,2.59,2.102,4.689,4.691,4.689h275.16c2.59,0,4.69-2.1,4.69-4.689V31.35C291.271,21.065,282.9,12.695,272.617,12.695
		L272.617,12.695z M27.053,22.075h243.893v5.949c0,3.1-2.522,5.621-5.621,5.621H32.673c-3.098,0-5.621-2.521-5.621-5.621V22.075z
		 M270.945,98.683H27.053v-0.632c0-3.1,2.523-5.622,5.621-5.622h232.651c3.1,0,5.621,2.522,5.621,5.622V98.683z M27.053,104.937
		h243.893v6.253H27.053V104.937z M27.053,117.443h243.893v4.69H27.053V117.443z M281.891,122.134h-4.691V98.051
		c0-6.547-5.328-11.875-11.875-11.875H32.673c-6.548,0-11.874,5.328-11.874,11.875v24.083h-4.69V31.35
		c0-3.445,1.893-6.452,4.69-8.053v4.728c0,6.547,5.328,11.875,11.874,11.875h232.651c6.551,0,11.875-5.328,11.875-11.875v-4.728
		c2.797,1.601,4.691,4.607,4.691,8.053V122.134z M281.891,122.134"/>
	<path style="fill:#dc1160;" d="M163.381,73.669h-28.764c-1.728,0-3.126,1.401-3.126,3.126c0,1.725,1.398,3.127,3.126,3.127h28.764
		c1.729,0,3.128-1.402,3.128-3.127C166.509,75.069,165.109,73.669,163.381,73.669L163.381,73.669z M163.381,73.669"/>
	<path style="fill:#dc1160;" d="M257.816,73.669c-0.828,0-1.635,0.333-2.215,0.913c-0.582,0.583-0.912,1.39-0.912,2.214
		c0,0.829,0.33,1.634,0.912,2.209c0.58,0.589,1.387,0.918,2.215,0.918c0.818,0,1.623-0.329,2.207-0.918
		c0.58-0.582,0.92-1.391,0.92-2.209c0-0.817-0.34-1.624-0.92-2.214C259.44,74.002,258.635,73.669,257.816,73.669L257.816,73.669z
		 M257.816,73.669"/>
	<path style="fill:#dc1160;" d="M243.431,73.669c-0.825,0-1.63,0.333-2.214,0.913c-0.58,0.583-0.913,1.39-0.913,2.214
		c0,0.829,0.333,1.627,0.913,2.209c0.584,0.582,1.389,0.918,2.214,0.918c0.821,0,1.628-0.336,2.208-0.918
		c0.582-0.582,0.918-1.391,0.918-2.209c0-0.824-0.336-1.631-0.918-2.214C245.059,74.002,244.252,73.669,243.431,73.669
		L243.431,73.669z M243.431,73.669"/>
	<path style="fill:#dc1160;" d="M123.246,152.01c0.846-1.506,0.309-3.41-1.197-4.256c-1.504-0.846-3.414-0.31-4.255,1.196
		c-5.687,10.139-5.687,22.733-0.004,32.872c4.627,8.25,4.627,18.502,0,26.749c-0.842,1.508-0.305,3.414,1.199,4.26
		c0.484,0.268,1.008,0.399,1.527,0.399c1.094,0,2.156-0.577,2.73-1.6c5.683-10.135,5.683-22.73,0-32.868
		C118.62,170.512,118.62,160.262,123.246,152.01L123.246,152.01z M123.246,152.01"/>
	<path style="fill:#dc1160;" d="M151.727,152.01c0.846-1.506,0.309-3.41-1.197-4.256c-1.506-0.846-3.41-0.31-4.256,1.196
		c-5.687,10.139-5.687,22.733,0,32.872c4.623,8.25,4.623,18.502,0,26.749c-0.846,1.508-0.309,3.414,1.197,4.26
		c0.482,0.268,1.007,0.399,1.525,0.399c1.094,0,2.156-0.577,2.73-1.6c5.683-10.135,5.683-22.73,0-32.868
		C147.1,170.512,147.1,160.262,151.727,152.01L151.727,152.01z M151.727,152.01"/>
	<path style="fill:#dc1160;" d="M180.21,152.01c0.843-1.506,0.308-3.41-1.2-4.256c-1.506-0.846-3.41-0.31-4.256,1.196
		c-5.686,10.139-5.686,22.733,0,32.872c4.625,8.25,4.625,18.502,0,26.749c-0.846,1.508-0.309,3.414,1.196,4.26
		c0.485,0.268,1.008,0.399,1.526,0.399c1.094,0,2.156-0.577,2.73-1.6c5.686-10.135,5.686-22.73,0-32.868
		C175.58,170.512,175.58,160.262,180.21,152.01L180.21,152.01z M180.21,152.01"/>
</g>
</svg>
