<?xml version="1.0" encoding="iso-8859-1"?>
<!-- Generator: Adobe Illustrator 19.0.1, SVG Export Plug-In . SVG Version: 6.00 Build 0)  -->
<svg version="1.1" id="Layer_3" xmlns="http://www.w3.org/2000/svg" xmlns:xlink="http://www.w3.org/1999/xlink" x="0px" y="0px"
	 viewBox="0 0 23.125 17.438" style="enable-background:new 0 0 23.125 17.438;" xml:space="preserve">
<g>
	<g>
		<path style="fill:#35424B;" d="M20.692,16.56H2.529c-1.025,0-1.859-0.833-1.859-1.858V2.819c0-1.024,0.834-1.857,1.859-1.857
			h18.163c1.024,0,1.857,0.833,1.857,1.857v11.883C22.55,15.727,21.717,16.56,20.692,16.56L20.692,16.56z M2.529,1.962
			c-0.474,0-0.859,0.385-0.859,0.857v11.883c0,0.473,0.386,0.858,0.859,0.858h18.163c0.473,0,0.857-0.385,0.857-0.858V2.819
			c0-0.473-0.385-0.857-0.857-0.857H2.529L2.529,1.962z"/>
	</g>
	<g>
		<path style="fill:#35424B;" d="M20.692,16.56H2.529c-0.766,0-1.463-0.482-1.736-1.2c-0.074-0.194-0.02-0.413,0.135-0.551
			l7.091-6.322C8.225,8.304,8.54,8.32,8.725,8.528c0.184,0.206,0.166,0.522-0.04,0.706L1.9,15.283
			c0.16,0.173,0.387,0.278,0.629,0.278h18.163c0.241,0,0.468-0.105,0.627-0.278l-6.862-6.12c-0.206-0.184-0.224-0.5-0.04-0.706
			c0.184-0.206,0.5-0.223,0.706-0.04l7.168,6.393c0.154,0.138,0.208,0.356,0.135,0.55C22.154,16.078,21.458,16.56,20.692,16.56
			L20.692,16.56z"/>
	</g>
	<g>
		<path style="fill:#35424B;" d="M11.611,12.067c-0.119,0-0.238-0.043-0.332-0.127L0.928,2.713C0.773,2.575,0.72,2.356,0.794,2.162
			c0.272-0.718,0.97-1.2,1.736-1.2h18.163c0.765,0,1.462,0.483,1.733,1.201c0.073,0.193,0.02,0.412-0.135,0.55L11.944,11.94
			C11.849,12.025,11.731,12.067,11.611,12.067L11.611,12.067z M1.9,2.24l9.711,8.658l9.708-8.658
			c-0.159-0.173-0.386-0.278-0.627-0.278H2.529C2.287,1.962,2.06,2.067,1.9,2.24L1.9,2.24z"/>
	</g>
</g>
</svg>
