<?xml version="1.0" encoding="iso-8859-1"?>
<!-- Generator: Adobe Illustrator 19.0.1, SVG Export Plug-In . SVG Version: 6.00 Build 0)  -->
<svg version="1.1" id="icons" xmlns="http://www.w3.org/2000/svg" xmlns:xlink="http://www.w3.org/1999/xlink" x="0px" y="0px"
	 viewBox="0 0 39 53.5" style="enable-background:new 0 0 39 53.5;" xml:space="preserve">
<g>
	
		<line style="fill:none;stroke:#fff;stroke-width:2;stroke-linejoin:round;stroke-miterlimit:10;" x1="27.667" y1="35.833" x2="27.667" y2="45.833"/>
	<polyline style="fill:none;stroke:#fff;stroke-width:2;stroke-linejoin:round;stroke-miterlimit:10;" points="30.667,43.833 
		22.667,48.833 22.667,50.833 	"/>
	
		<line style="fill:none;stroke:#fff;stroke-width:2;stroke-linejoin:round;stroke-miterlimit:10;" x1="11.667" y1="35.833" x2="11.667" y2="45.833"/>
	<path style="fill:none;stroke:#fff;stroke-width:2;stroke-linejoin:round;stroke-miterlimit:10;" d="M33.667,47.833v-4
		c0-1-0.458-1.396-1-2l-3-3"/>
	<path style="fill:none;stroke:#fff;stroke-width:2;stroke-linejoin:round;stroke-miterlimit:10;" d="M5.667,47.833v-4
		c0-1,0.458-1.396,1-2l3-3"/>
	<polyline style="fill:none;stroke:#fff;stroke-width:2;stroke-linejoin:round;stroke-miterlimit:10;" points="8.667,43.833 
		16.667,48.833 16.667,50.833 	"/>
	<path style="fill:none;stroke:#fff;stroke-width:2;stroke-linejoin:round;stroke-miterlimit:10;" d="M30.667,22.833v6
		c0,1.308-0.313,3.969-1,5c-0.688,1.031-4,4-4,4c-1.429,1.37-3.25,2-5,2h-1h-1c-1.75,0-3.572-0.63-5-2c0,0-3.313-2.969-4-4
		c-0.688-1.031-1-3.692-1-5v-6"/>
	<polyline style="fill:none;stroke:#fff;stroke-width:2;stroke-linejoin:round;stroke-miterlimit:10;" points="16.667,12.833 
		16.667,3.833 22.667,3.833 22.667,12.833 	"/>
	
		<line style="fill:none;stroke:#fff;stroke-width:2;stroke-linejoin:round;stroke-miterlimit:10;" x1="35.667" y1="21.833" x2="3.667" y2="21.833"/>
	<path style="fill:none;stroke:#fff;stroke-width:2;stroke-linejoin:round;stroke-miterlimit:10;" d="M25.667,9.833v-5
		c3.902,2.176,7,4.957,7,10v2l2,1v2"/>
	<path style="fill:none;stroke:#fff;stroke-width:2;stroke-linejoin:round;stroke-miterlimit:10;" d="M13.667,9.833v-5
		c-4,2.176-7,4.957-7,10v2l-2,1v2"/>
</g>
</svg>
