<?xml version="1.0" encoding="iso-8859-1"?>
<!-- Generator: Adobe Illustrator 19.0.1, SVG Export Plug-In . SVG Version: 6.00 Build 0)  -->
<svg version="1.1" id="Warstwa_1" xmlns="http://www.w3.org/2000/svg" xmlns:xlink="http://www.w3.org/1999/xlink" x="0px" y="0px" fill="#154987"
	 viewBox="0 0 188 248" style="enable-background:new 0 0 188 248;" xml:space="preserve">
<path d="M82.583,180.167v-8.054c-35.805-5.758-63.269-36.783-63.269-74.189c0-41.479,33.747-75.227,75.235-75.227
	c22.466,0,43.579,9.93,57.942,27.247c1.409,1.691,3.917,1.928,5.613,0.522c1.697-1.406,1.933-3.917,0.522-5.614
	C142.747,25.706,119.39,14.724,94.55,14.724c-45.879,0-83.207,37.321-83.207,83.2C11.343,139.73,42.366,174.336,82.583,180.167z"/>
<path d="M90.555,218.517l-7.972-8.925l-10.977-12.284l-5.949,5.31l16.926,18.942l6.615,7.401l5.343,5.983l28.883-32.327l-5.948-5.31
	l-18.948,21.209v-37.588c44.023-2.098,79.221-38.467,79.221-83.005c0-10.281-1.854-20.326-5.514-29.853
	c-0.785-2.051-3.089-3.072-5.145-2.292c-2.054,0.789-3.083,3.094-2.296,5.149c3.31,8.61,4.983,17.691,4.983,26.996
	c0,40.144-31.622,72.944-71.249,75.033v-58.594h-7.973V218.517z"/>
<path d="M73.864,61.31c0,14.375,9.28,26.072,20.686,26.072c11.404,0,20.676-11.697,20.676-26.072
	c0-14.371-9.271-26.063-20.676-26.063C83.144,35.247,73.864,46.939,73.864,61.31z M94.55,79.41c-6.891,0-12.713-8.288-12.713-18.1
	c0-9.804,5.822-18.092,12.713-18.092c6.889,0,12.704,8.288,12.704,18.092C107.254,71.122,101.438,79.41,94.55,79.41z"/>
</svg>
