<?xml version="1.0" encoding="iso-8859-1"?>
<!-- Generator: Adobe Illustrator 19.0.1, SVG Export Plug-In . SVG Version: 6.00 Build 0)  -->
<svg version="1.1" id="Layer_3" xmlns="http://www.w3.org/2000/svg" xmlns:xlink="http://www.w3.org/1999/xlink" x="0px" y="0px"
	 viewBox="0 0 27.167 26.25" style="enable-background:new 0 0 27.167 26.25;" xml:space="preserve">
<g>
	<g>
		<path style="fill:#35424B;" d="M20.825,25.044c-0.103,0-0.206-0.032-0.294-0.096l-6.897-5.011l-6.898,5.011
			c-0.176,0.128-0.413,0.128-0.588,0c-0.175-0.127-0.249-0.353-0.182-0.559l2.636-8.107l-6.897-5.011
			c-0.175-0.127-0.248-0.352-0.182-0.559c0.067-0.206,0.259-0.346,0.476-0.346h8.526l2.634-8.107
			c0.067-0.206,0.259-0.346,0.476-0.346l0,0c0.217,0,0.409,0.14,0.476,0.346l2.633,8.107h8.526c0.217,0,0.409,0.14,0.476,0.346
			c0.067,0.206-0.006,0.432-0.182,0.559l-6.896,5.011L21.3,24.39c0.067,0.206-0.006,0.432-0.182,0.559
			C21.031,25.013,20.928,25.044,20.825,25.044L20.825,25.044z M3.537,11.367l5.946,4.32c0.175,0.127,0.249,0.353,0.182,0.559
			l-2.272,6.989l5.947-4.32c0.176-0.128,0.412-0.128,0.588,0l5.946,4.32l-2.272-6.99c-0.067-0.206,0.006-0.432,0.182-0.559
			l5.946-4.32h-7.351c-0.217,0-0.409-0.14-0.476-0.346l-2.269-6.989l-2.271,6.989c-0.067,0.206-0.259,0.346-0.476,0.346H3.537
			L3.537,11.367z"/>
	</g>
</g>
</svg>
