<?xml version="1.0" encoding="iso-8859-1"?>
<!-- Generator: Adobe Illustrator 19.0.1, SVG Export Plug-In . SVG Version: 6.00 Build 0)  -->
<svg version="1.1" id="&#x421;&#x43B;&#x43E;&#x439;_1"
	 xmlns="http://www.w3.org/2000/svg" xmlns:xlink="http://www.w3.org/1999/xlink" x="0px" y="0px" viewBox="0 0 125.5 141"
	 style="enable-background:new 0 0 125.5 141;" xml:space="preserve">
<g id="_x2018_&#x438;&#x433;&#x443;&#x440;&#x430;_x5F_4_x5F__x5F_x28_x5F_&#x43A;&#x43E;&#x43F;&#x438;_x20AC__x5F_x29_x5F__x5F_13">
	<path style="fill-rule:evenodd;clip-rule:evenodd;fill:#db0656;" d="M118.493,98.701l-5.214-3.01l2.658-0.968
		c1.674-0.609,2.537-2.46,1.927-4.134c-0.609-1.674-2.459-2.536-4.133-1.928l-7.744,2.819l-9.416-5.437l14.724-5.359
		c1.674-0.608,2.537-2.459,1.928-4.133c-0.609-1.674-2.46-2.537-4.133-1.928l-19.81,7.21l-1.68-0.97
		c2.618-6.243,2.757-13.446-0.007-19.996l1.687-0.974l19.81,7.21c1.673,0.609,3.524-0.254,4.133-1.927
		c0.609-1.674-0.254-3.524-1.928-4.134L96.57,55.686l9.415-5.436l7.745,2.818c1.674,0.609,3.524-0.254,4.133-1.928
		c0.609-1.673-0.253-3.523-1.927-4.133l-2.659-0.968l5.215-3.011c1.543-0.891,2.071-2.863,1.181-4.405
		c-0.891-1.542-2.863-2.071-4.405-1.181l-5.212,3.009l0.49-2.78c0.309-1.754-0.862-3.427-2.616-3.735
		c-1.754-0.31-3.426,0.861-3.736,2.615l-1.43,8.11l-9.448,5.455l2.723-15.442c0.31-1.755-0.862-3.427-2.616-3.736
		c-1.754-0.31-3.427,0.862-3.736,2.616l-3.663,20.771l-1.659,0.958c-4.294-5.676-10.612-9.158-17.337-10.007v-1.956l16.158-13.559
		c1.365-1.144,1.542-3.179,0.398-4.543c-1.145-1.364-3.179-1.542-4.543-0.397L67.03,34.901V24.068l6.276-5.267
		c1.364-1.145,1.542-3.179,0.397-4.543c-1.145-1.364-3.179-1.543-4.544-0.398l-2.13,1.787V9.594c0-1.781-1.444-3.225-3.225-3.225
		c-1.781,0-3.225,1.443-3.225,3.225v6.113l-2.2-1.846c-1.364-1.146-3.398-0.967-4.543,0.398c-1.145,1.364-0.967,3.398,0.397,4.543
		l6.345,5.324v10.742L48.578,24.797c-1.364-1.145-3.398-0.967-4.543,0.397c-1.145,1.364-0.967,3.399,0.397,4.543l16.149,13.551
		v1.984c-3.31,0.417-6.592,1.485-9.663,3.258c-3.07,1.772-5.637,4.081-7.653,6.739l-1.718-0.992l-3.661-20.761
		c-0.31-1.754-1.982-2.925-3.736-2.616c-1.754,0.31-2.925,1.982-2.616,3.736l2.721,15.431l-9.303-5.371l-1.438-8.157
		c-0.309-1.754-1.982-2.926-3.736-2.616c-1.754,0.31-2.925,1.981-2.616,3.735l0.499,2.828l-5.294-3.057
		c-1.542-0.891-3.515-0.362-4.405,1.181c-0.891,1.542-0.362,3.515,1.18,4.405l5.244,3.027l-2.613,0.951
		c-1.673,0.609-2.537,2.46-1.927,4.134c0.609,1.673,2.459,2.536,4.133,1.927l7.699-2.802l9.381,5.416l-14.735,5.363
		c-1.673,0.609-2.536,2.46-1.927,4.134c0.609,1.674,2.46,2.536,4.133,1.928l19.821-7.215l1.693,0.977
		c-2.627,6.249-2.77,13.462-0.002,20.019l-1.691,0.977L18.53,74.638c-1.673-0.609-3.524,0.254-4.133,1.928
		c-0.609,1.673,0.254,3.523,1.927,4.133l14.736,5.363l-9.382,5.417l-7.7-2.803c-1.674-0.609-3.524,0.254-4.133,1.928
		c-0.609,1.674,0.254,3.524,1.927,4.133l2.614,0.951l-5.245,3.028c-1.543,0.891-2.071,2.862-1.18,4.405
		c0.89,1.542,2.863,2.07,4.405,1.18l5.294-3.057l-0.499,2.828c-0.31,1.754,0.862,3.427,2.616,3.735
		c1.754,0.31,3.427-0.861,3.736-2.615l1.439-8.158l9.303-5.371l-2.721,15.432c-0.309,1.754,0.862,3.426,2.616,3.735
		c1.754,0.31,3.426-0.861,3.736-2.615l3.661-20.762l1.72-0.993c4.29,5.669,10.598,9.15,17.314,10.005v1.939l-16.149,13.551
		c-1.364,1.145-1.542,3.179-0.397,4.543c1.145,1.364,3.179,1.542,4.543,0.398l12.003-10.071v10.872l-6.313,5.297
		c-1.364,1.146-1.542,3.18-0.397,4.544c1.145,1.364,3.179,1.542,4.543,0.397l2.168-1.818v6.022c0,1.78,1.444,3.225,3.225,3.225
		c1.781,0,3.225-1.444,3.225-3.225v-6.018l2.163,1.814c1.365,1.144,3.398,0.967,4.543-0.397c1.145-1.364,0.967-3.398-0.397-4.544
		l-6.309-5.294v-10.908l12.012,10.079c1.364,1.145,3.398,0.967,4.543-0.397c1.145-1.364,0.967-3.399-0.398-4.543L67.03,98.371
		v-1.895c3.318-0.415,6.609-1.485,9.687-3.262c3.078-1.776,5.65-4.092,7.668-6.758l1.641,0.947l3.663,20.772
		c0.309,1.754,1.982,2.925,3.736,2.615c1.754-0.309,2.925-1.981,2.616-3.735l-2.723-15.442l9.448,5.454l1.43,8.11
		c0.31,1.754,1.982,2.925,3.736,2.616c1.754-0.31,2.925-1.982,2.616-3.736l-0.49-2.78l5.212,3.009
		c1.542,0.891,3.515,0.362,4.405-1.181C120.564,101.565,120.035,99.592,118.493,98.701z M73.492,87.629
		c-9.255,5.344-21.088,2.173-26.432-7.082c-5.343-9.255-2.172-21.088,7.083-26.432c9.254-5.343,21.088-2.172,26.431,7.083
		C85.917,70.452,82.747,82.286,73.492,87.629z"/>
</g>
<g>
</g>
<g>
</g>
<g>
</g>
<g>
</g>
<g>
</g>
<g>
</g>
</svg>
